<?xml version="1.0" encoding="UTF-8" standalone="no"?>
<svg
   xmlns:dc="http://purl.org/dc/elements/1.1/"
   xmlns:cc="http://creativecommons.org/ns#"
   xmlns:rdf="http://www.w3.org/1999/02/22-rdf-syntax-ns#"
   xmlns:svg="http://www.w3.org/2000/svg"
   xmlns="http://www.w3.org/2000/svg"
   viewBox="0 0 816 1056"
   height="1056"
   width="816"
   xml:space="preserve"
   id="svg2"
   version="1.1"><metadata
     id="metadata8"><rdf:RDF><cc:Work
         rdf:about=""><dc:format>image/svg+xml</dc:format><dc:type
           rdf:resource="http://purl.org/dc/dcmitype/StillImage" /></cc:Work></rdf:RDF></metadata><defs
     id="defs6" /><g
     transform="matrix(1.3333333,0,0,-1.3333333,0,1056)"
     id="g10"><path
       id="path12"
       style="fill:#ffffff;fill-opacity:1;fill-rule:nonzero;stroke:none"
       d="m 306.6685,391.3252 c 2.2573,0 4.2143,0.8281 5.8628,2.4775 1.6523,1.6524 2.4804,3.6094 2.4804,5.8672 v 41.7149 c 0,2.2617 -0.8281,4.2148 -2.4804,5.8672 -1.6485,1.6513 -3.6055,2.4765 -5.8628,2.4765 -2.2618,0 -4.2149,-0.8291 -5.8672,-2.4765 -1.6524,-1.6524 -2.4766,-3.6094 -2.4766,-5.8672 v -41.7149 c 0,-2.2578 0.8242,-4.2148 2.4766,-5.8672 1.6523,-1.6494 3.6054,-2.4775 5.8672,-2.4775 v 0" /><path
       id="path14"
       style="fill:#ffffff;fill-opacity:1;fill-rule:nonzero;stroke:none"
       d="m 351.4766,413.6855 c -3.4961,6.9961 -8.418,12.8594 -14.7618,17.5977 -1.8242,1.3906 -3.8867,1.9336 -6.1914,1.6289 -2.3046,-0.3047 -4.1289,-1.3906 -5.4765,-3.2588 -1.3906,-1.8232 -1.9219,-3.8789 -1.5938,-6.1592 0.3242,-2.2812 1.3985,-4.1171 3.2266,-5.5087 4.2539,-3.2139 7.5508,-7.1475 9.8711,-11.7959 2.3242,-4.6485 3.4883,-9.6055 3.4883,-14.8604 0,-4.5225 -0.8828,-8.832 -2.6407,-12.9404 -1.7578,-4.1065 -4.1367,-7.6563 -7.1367,-10.6563 -3,-2.997 -6.5508,-5.375 -10.6562,-7.1367 -4.1055,-1.7578 -8.418,-2.6416 -12.937,-2.6416 -4.5196,0 -8.8321,0.8838 -12.9375,2.6416 -4.1094,1.7617 -7.6602,4.1397 -10.6563,7.1367 -3,3 -5.3789,6.5498 -7.1367,10.6563 -1.7617,4.1084 -2.6406,8.4179 -2.6406,12.9404 0,5.2549 1.1601,10.208 3.4843,14.8604 2.3282,4.6484 5.6172,8.582 9.875,11.7959 1.8243,1.3916 2.9024,3.2275 3.2266,5.5087 0.3281,2.2803 -0.207,4.336 -1.5977,6.1592 -1.3437,1.8682 -3.1601,2.9541 -5.4414,3.2588 -2.2812,0.3047 -4.3554,-0.2383 -6.2226,-1.6289 -6.3477,-4.7383 -11.2656,-10.6016 -14.7656,-17.5977 -3.4961,-6.996 -5.2461,-14.4501 -5.2461,-22.3564 0,-6.7803 1.3242,-13.2539 3.9765,-19.4258 2.6524,-6.1679 6.2149,-11.4922 10.6875,-15.9678 4.4766,-4.4726 9.8008,-8.039 15.9688,-10.6884 6.1719,-2.6514 12.6445,-3.9756 19.4258,-3.9756 6.7768,0 13.2495,1.3242 19.4213,3.9756 6.1719,2.6494 11.4922,6.2158 15.9688,10.6884 4.4766,4.4756 8.0391,9.7999 10.6875,15.9678 2.6523,6.1719 3.9766,12.6455 3.9766,19.4258 0,7.9063 -1.7461,15.3604 -5.2461,22.3564 v 0" /></g></svg>